<svg id="b7106c6e-8250-42be-b624-0b9a4c4a42d5" data-name="Layer 1" xmlns="http://www.w3.org/2000/svg" viewBox="0 0 64 64">
  <title>pospisk-icon</title>
  <path d="M45.93,29.91,61.76,14.09a7.63,7.63,0,0,0,0-10.81l-1-1a7.67,7.67,0,0,0-10.83,0L34.06,18,17,1a3.45,3.45,0,0,0-4.88,0L1,12.15A3.45,3.45,0,0,0,1,17l17,17L6.64,45.43.2,60.52a2.5,2.5,0,0,0,3.3,3.27l15-6.51L29.9,45.92l11.5,11.5L47,63a3.45,3.45,0,0,0,4.88,0L63,51.85A3.45,3.45,0,0,0,63,47ZM52,4.33a4.68,4.68,0,0,1,6.64,0l1.05,1a4.69,4.69,0,0,1,0,6.63l-4.05,4.05L47.93,8.37ZM16.68,28.52l5.22-5.23a1.47,1.47,0,0,0-2.09-2.08l-5.22,5.22L9.72,21.56l2.43-2.44A1.48,1.48,0,0,0,10.06,17L7.63,19.47,3.1,14.94A.5.5,0,0,1,3,14.59a.49.49,0,0,1,.15-.35L14.24,3.1a.48.48,0,0,1,.7,0l17,17L20.12,32ZM3.37,60.63,8.45,48.72l6.77,6.76Zm26.52-18.9L27.8,43.82l-10,10-7.69-7.67,10-10,2.09-2.09,3.41-3.4,8.44-8.43,2.09-2.09,9.69-9.67,7.69,7.68-9.7,9.67L41.74,29.9l-5.63,5.63Zm31,8L49.76,60.9a.48.48,0,0,1-.7,0l-4.52-4.52,5.22-5.23a1.47,1.47,0,0,0,0-2.09,1.49,1.49,0,0,0-2.09,0l-5.22,5.23-4.88-4.88L40,47a1.47,1.47,0,1,0-2.09-2.08l-2.43,2.44L32,43.83,43.83,32,60.9,49.06A.5.5,0,0,1,60.9,49.76Z"/>
</svg>
