<svg id="bcba4720-67e2-4491-8949-b6642a8fd761" data-name="Layer 1" xmlns="http://www.w3.org/2000/svg" viewBox="0 0 64 64">
  <title>icon</title>
  <path d="M63.11,47.56,45.42,29.87,61.83,13.46a7.27,7.27,0,0,0,0-10.27L60.77,2.13a7.27,7.27,0,0,0-10.27,0L34.09,18.54,16.44.89a3,3,0,0,0-4.24,0L.89,12.2a3,3,0,0,0,0,4.24L6.5,22.05l0,.05,0,0,12,12L6.7,45.92.21,61.16A2,2,0,0,0,.65,63.4a2,2,0,0,0,1.43.6,2.15,2.15,0,0,0,.82-.17L18,57.25,29.87,45.42,47.56,63.11a3,3,0,0,0,4.24,0L63.11,51.8A3,3,0,0,0,63.11,47.56Zm-11.2-44a5.28,5.28,0,0,1,7.45,0L60.42,4.6a5.28,5.28,0,0,1,0,7.45L56,16.51,47.45,8ZM15.74,28.47l5.65-5.66a1,1,0,0,0,0-1.42,1,1,0,0,0-1.41,0l-5.66,5.66L8.66,21.39l2.83-2.83a1,1,0,1,0-1.41-1.41L7.25,20,2.3,15a1,1,0,0,1,0-1.41L13.62,2.3a1,1,0,0,1,.7-.29A1,1,0,0,1,15,2.3L32.68,20,20,32.68ZM2.05,61.94,7.94,48.1,15.85,56Zm15.52-7L9.06,46.39l37-37,8.51,8.5ZM61.7,50.38,50.38,61.7a1,1,0,0,1-1.41,0l-4.95-5,5.66-5.66a1,1,0,0,0,0-1.41,1,1,0,0,0-1.42,0l-5.65,5.66L37,49.68l2.83-2.83a1,1,0,1,0-1.42-1.41l-2.82,2.83L31.28,44,44,31.28,61.7,49A1,1,0,0,1,61.7,50.38Z"/>
</svg>
