<svg id="fa2a98ce-800f-490c-8ee2-4f2b04485566" data-name="Layer 1" xmlns="http://www.w3.org/2000/svg" viewBox="0 0 64 64">
  <defs>
    <style>
      .a7d5651c-ced5-4dc6-b8b3-ecf1096f7baa {
        fill: #fec12e;
      }

      .e007a9c6-2d1a-4876-9252-bcfba6cb65cb {
        fill: #e0cd9f;
      }

      .eaf91a2c-50e9-46fe-b076-008e621f99fc {
        fill: #ff625a;
      }
    </style>
  </defs>
  <title>icon</title>
  <g>
    <path class="a7d5651c-ced5-4dc6-b8b3-ecf1096f7baa" d="M21.39,22.81a1,1,0,0,0,0-1.42,1,1,0,0,0-1.41,0l-5.66,5.66L8.66,21.39l2.83-2.83a1,1,0,1,0-1.41-1.41L7.25,20,2.3,15a1,1,0,0,1,0-1.41L13.62,2.3a1,1,0,0,1,.7-.29A1,1,0,0,1,15,2.3L32.68,20,20,32.68l-4.21-4.21Z"/>
    <path class="a7d5651c-ced5-4dc6-b8b3-ecf1096f7baa" d="M61.7,50.38,50.38,61.7a1,1,0,0,1-1.41,0l-4.95-5,5.66-5.66a1,1,0,0,0,0-1.41,1,1,0,0,0-1.42,0l-5.65,5.66L37,49.68l2.83-2.83a1,1,0,1,0-1.42-1.41l-2.82,2.83L31.28,44,44,31.28,61.7,49A1,1,0,0,1,61.7,50.38Z"/>
  </g>
  <g>
    <polygon class="a7d5651c-ced5-4dc6-b8b3-ecf1096f7baa" points="54.31 18.17 43.78 28.71 28.23 44.26 17.34 55.15 8.83 46.64 45.8 9.67 54.31 18.17"/>
    <path class="e007a9c6-2d1a-4876-9252-bcfba6cb65cb" d="M15.62,56.26,3,61.7a.5.5,0,0,1-.66-.65l5.4-12.7Z"/>
    <path class="eaf91a2c-50e9-46fe-b076-008e621f99fc" d="M60.19,12.3l-4.46,4.46L47.22,8.25l4.46-4.46a5.28,5.28,0,0,1,7.45,0l1.06,1.06A5.28,5.28,0,0,1,60.19,12.3Z"/>
  </g>
</svg>
