<svg id="f458b6ca-3dfa-4ae4-b33b-176b74112ddb" data-name="Layer 1" xmlns="http://www.w3.org/2000/svg" viewBox="0 0 64 64">
  <defs>
    <style>
      .e1d8c95d-b554-40d2-955c-f3d6763324d3 {
        fill: #262626;
      }

      .b9afad8a-be9d-4bbe-a5d8-b592f64bb3c9 {
        fill: #ff625a;
      }

      .b9512707-73bd-4f53-8aa3-ce68fbe80ac6 {
        fill: #fec12e;
      }

      .fa9fe5df-24ed-4763-b7b8-bbe18d468192 {
        fill: #29c941;
      }
    </style>
  </defs>
  <title>icon</title>
  <g>
    <path class="e1d8c95d-b554-40d2-955c-f3d6763324d3" d="M62,10.88v7.69H2V10.88a5,5,0,0,1,5-5H57A5,5,0,0,1,62,10.88Z"/>
    <path class="e1d8c95d-b554-40d2-955c-f3d6763324d3" d="M2,20.69V53.12a5,5,0,0,0,5,5H57a5,5,0,0,0,5-5V20.69ZM25.94,43a1.07,1.07,0,0,1,.12,1.49,1.06,1.06,0,0,1-1.49.12l-6.84-5.82a1.06,1.06,0,0,1,0-1.61l6.84-5.82a1.05,1.05,0,0,1,1.49.12A1.07,1.07,0,0,1,25.94,33L20,38Zm8.93-14.84L30.61,48.37a1,1,0,0,1-1,.84l-.22,0a1.06,1.06,0,0,1-.82-1.25L32.81,27.7a1.05,1.05,0,0,1,2.06.44Zm11.4,10.63-6.84,5.82a1.06,1.06,0,0,1-1.49-.12A1.07,1.07,0,0,1,38.06,43L44,38l-5.9-5a1.07,1.07,0,0,1-.12-1.49,1.05,1.05,0,0,1,1.49-.12l6.84,5.82a1.06,1.06,0,0,1,0,1.61Z"/>
    <circle class="b9afad8a-be9d-4bbe-a5d8-b592f64bb3c9" cx="8" cy="12.5" r="2"/>
    <circle class="b9512707-73bd-4f53-8aa3-ce68fbe80ac6" cx="14" cy="12.5" r="2"/>
    <circle class="fa9fe5df-24ed-4763-b7b8-bbe18d468192" cx="20" cy="12.5" r="2"/>
  </g>
</svg>
