<svg xmlns="http://www.w3.org/2000/svg" viewBox="0 0 761.264 271.365">
  <defs>
    <style>
      .cls-1 {
        fill: #fff;
      }
    </style>
  </defs>
  <title>pospisk</title>
  <g id="Layer_24" data-name="Layer 24">
    <circle cx="135.682" cy="135.682" r="135.682"/>
  </g>
  <g id="Layer_23" data-name="Layer 23">
    <path class="cls-1" d="M135.682,83.8A135.443,135.443,0,0,0,29,135.642c55.542,70.089,159.763,68.088,213.369,0A135.443,135.443,0,0,0,135.682,83.8Z"/>
  </g>
  <g id="Layer_22" data-name="Layer 22">
    <circle cx="135.682" cy="135.682" r="51.828"/>
  </g>
  <g id="Layer_21" data-name="Layer 21">
    <path class="cls-1" d="M135.682,135.682a51.5,51.5,0,0,1-19.389,6.526,52.9,52.9,0,0,1-13.051,0,51.5,51.5,0,0,1-19.389-6.526,51.514,51.514,0,0,1,19.389-6.525,52.9,52.9,0,0,1,13.051,0A51.514,51.514,0,0,1,135.682,135.682Z"/>
  </g>
  <g id="Layer_20" data-name="Layer 20">
    <path class="cls-1" d="M135.682,135.682a51.5,51.5,0,0,1-18.324-9.1,52.929,52.929,0,0,1-9.228-9.228,51.518,51.518,0,0,1-9.1-18.325,51.518,51.518,0,0,1,18.325,9.1,52.929,52.929,0,0,1,9.228,9.228A51.5,51.5,0,0,1,135.682,135.682Z"/>
  </g>
  <g id="Layer_19" data-name="Layer 19">
    <path class="cls-1" d="M135.682,135.682a51.514,51.514,0,0,1-6.525-19.389,52.9,52.9,0,0,1,0-13.051,51.514,51.514,0,0,1,6.525-19.389,51.5,51.5,0,0,1,6.526,19.389,52.9,52.9,0,0,1,0,13.051A51.5,51.5,0,0,1,135.682,135.682Z"/>
  </g>
  <g id="Layer_18" data-name="Layer 18">
    <path class="cls-1" d="M135.682,135.682a51.522,51.522,0,0,1,9.1-18.324,52.837,52.837,0,0,1,9.228-9.228,51.518,51.518,0,0,1,18.325-9.1,51.518,51.518,0,0,1-9.1,18.325,52.929,52.929,0,0,1-9.228,9.228A51.5,51.5,0,0,1,135.682,135.682Z"/>
  </g>
  <g id="Layer_17" data-name="Layer 17">
    <path class="cls-1" d="M135.682,135.682a51.522,51.522,0,0,0-18.324,9.1,52.837,52.837,0,0,0-9.228,9.228,51.518,51.518,0,0,0-9.1,18.325,51.518,51.518,0,0,0,18.325-9.1,52.929,52.929,0,0,0,9.228-9.228A51.5,51.5,0,0,0,135.682,135.682Z"/>
  </g>
  <g id="Layer_16" data-name="Layer 16">
    <path class="cls-1" d="M135.682,135.682a51.525,51.525,0,0,0-6.525,19.39,52.9,52.9,0,0,0,0,13.051,51.514,51.514,0,0,0,6.525,19.389,51.5,51.5,0,0,0,6.526-19.389,52.9,52.9,0,0,0,0-13.051A51.509,51.509,0,0,0,135.682,135.682Z"/>
  </g>
  <g id="Layer_15" data-name="Layer 15">
    <path class="cls-1" d="M135.682,135.682a51.518,51.518,0,0,0,9.1,18.325,52.837,52.837,0,0,0,9.228,9.228,51.518,51.518,0,0,0,18.325,9.1,51.518,51.518,0,0,0-9.1-18.325,52.837,52.837,0,0,0-9.228-9.228A51.518,51.518,0,0,0,135.682,135.682Z"/>
  </g>
  <g id="Layer_14" data-name="Layer 14">
    <path class="cls-1" d="M135.682,135.682a51.525,51.525,0,0,1,19.39-6.525,52.9,52.9,0,0,1,13.051,0,51.514,51.514,0,0,1,19.389,6.525,51.5,51.5,0,0,1-19.389,6.526,52.9,52.9,0,0,1-13.051,0A51.509,51.509,0,0,1,135.682,135.682Z"/>
  </g>
  <g id="Layer_13" data-name="Layer 13">
    <circle cx="135.682" cy="135.682" r="19.798"/>
  </g>
  <g id="Layer_12" data-name="Layer 12">
    <path d="M306.517,174.213V97.2H334.85a37.372,37.372,0,0,1,15.071,2.9,24.1,24.1,0,0,1,10.519,8.548,23.851,23.851,0,0,1,3.861,13.793,24.165,24.165,0,0,1-3.408,13.1,22.149,22.149,0,0,1-9.56,8.335,33.572,33.572,0,0,1-14.459,2.9h-14.7v27.427Zm15.5-39.517h14.433a12.925,12.925,0,0,0,9.586-3.755,12.667,12.667,0,0,0,3.728-9.293,11.418,11.418,0,0,0-3.941-9.133,14.219,14.219,0,0,0-9.587-3.382H322.015Z"/>
  </g>
  <g id="Layer_11" data-name="Layer 11">
    <path d="M406.234,174.222a35.1,35.1,0,0,1-18.374-4.639,30.887,30.887,0,0,1-11.972-13.215q-4.225-8.578-4.224-20.5,0-11.973,4.275-20.628a31.43,31.43,0,0,1,12.051-13.346,37.712,37.712,0,0,1,36.384-.026,31.044,31.044,0,0,1,11.948,13.32q4.222,8.657,4.223,20.68,0,11.871-4.171,20.473a30.6,30.6,0,0,1-11.9,13.242A34.753,34.753,0,0,1,406.234,174.222Zm0-12.438a17.032,17.032,0,0,0,9.511-2.618,16.569,16.569,0,0,0,6.194-8.293q2.176-5.676,2.177-14.8,0-9.381-2.2-15.187a17.3,17.3,0,0,0-6.22-8.525,17.841,17.841,0,0,0-18.944,0,17.358,17.358,0,0,0-6.271,8.551q-2.229,5.832-2.229,15.161,0,9.174,2.229,14.823a16.769,16.769,0,0,0,6.271,8.267A17.063,17.063,0,0,0,406.234,161.784Z"/>
  </g>
  <g id="Layer_10" data-name="Layer 10">
    <path d="M482.475,174.222a42.743,42.743,0,0,1-10.884-1.4,34.194,34.194,0,0,1-9.744-4.2,24.9,24.9,0,0,1-7.282-7,20.8,20.8,0,0,1-3.446-9.848h15.5a12.211,12.211,0,0,0,2.954,5.754,14.186,14.186,0,0,0,5.494,3.576,20.819,20.819,0,0,0,7.359,1.244,26.027,26.027,0,0,0,7.568-1.037,12.549,12.549,0,0,0,5.467-3.136,7.225,7.225,0,0,0,2.048-5.261,6.648,6.648,0,0,0-1.659-4.665,12.064,12.064,0,0,0-4.509-2.954,36.986,36.986,0,0,0-6.478-1.865L471.9,140.792q-8.5-1.6-13.476-6.763T453.3,120.268a19.716,19.716,0,0,1,3.758-12.206,24.5,24.5,0,0,1,10.365-7.956,37.078,37.078,0,0,1,14.695-2.8q9.692,0,16.3,3.032a23.5,23.5,0,0,1,10.054,8.189,20.934,20.934,0,0,1,3.55,11.532H496.832a11.464,11.464,0,0,0-2.384-6.3,11.013,11.013,0,0,0-5.053-3.4,22,22,0,0,0-7.023-1.037,20.7,20.7,0,0,0-5.468.674,13.088,13.088,0,0,0-4.173,1.892,8.869,8.869,0,0,0-2.643,2.877,7.477,7.477,0,0,0-.933,3.731,6.876,6.876,0,0,0,2.177,5.287q2.178,2.02,8.137,3.317l12.854,2.643a31.2,31.2,0,0,1,10.962,3.991,19.443,19.443,0,0,1,6.116,5.96,19.849,19.849,0,0,1,2.695,6.764,34.568,34.568,0,0,1,.648,6.35,17.2,17.2,0,0,1-3.81,10.91,25.645,25.645,0,0,1-10.6,7.671A41.078,41.078,0,0,1,482.475,174.222Z"/>
  </g>
  <g id="Layer_9" data-name="Layer 9">
    <path d="M525.329,174.213V97.307h28.294a37.311,37.311,0,0,1,15.051,2.9A25.187,25.187,0,0,1,579.63,135.6a22.1,22.1,0,0,1-9.546,8.323,33.517,33.517,0,0,1-14.44,2.9H540.965v27.391ZM540.8,134.749h14.414a12.906,12.906,0,0,0,9.573-3.75,12.652,12.652,0,0,0,3.723-9.28,11.4,11.4,0,0,0-3.935-9.121,14.2,14.2,0,0,0-9.574-3.377H540.8Z"/>
  </g>
  <g id="Layer_8" data-name="Layer 8">
    <path d="M593.5,97.307h15.477v76.906H593.5Z"/>
  </g>
  <g id="Layer_7" data-name="Layer 7">
    <path d="M653.72,174.222a42.738,42.738,0,0,1-10.884-1.4,34.194,34.194,0,0,1-9.744-4.2,24.9,24.9,0,0,1-7.282-7,20.8,20.8,0,0,1-3.447-9.848h15.5a12.221,12.221,0,0,0,2.955,5.754,14.186,14.186,0,0,0,5.494,3.576,20.816,20.816,0,0,0,7.359,1.244,26.027,26.027,0,0,0,7.568-1.037,12.558,12.558,0,0,0,5.468-3.136,7.233,7.233,0,0,0,2.047-5.261,6.648,6.648,0,0,0-1.659-4.665,12.072,12.072,0,0,0-4.509-2.954,37,37,0,0,0-6.479-1.865l-12.957-2.644q-8.5-1.6-13.476-6.763t-5.131-13.761a19.722,19.722,0,0,1,3.757-12.206,24.5,24.5,0,0,1,10.367-7.956,37.07,37.07,0,0,1,14.694-2.8q9.692,0,16.3,3.032a23.491,23.491,0,0,1,10.055,8.189,20.934,20.934,0,0,1,3.55,11.532H668.078a11.479,11.479,0,0,0-2.385-6.3,11.011,11.011,0,0,0-5.054-3.4,22,22,0,0,0-7.022-1.037,20.7,20.7,0,0,0-5.468.674,13.088,13.088,0,0,0-4.173,1.892,8.884,8.884,0,0,0-2.644,2.877,7.486,7.486,0,0,0-.932,3.731,6.876,6.876,0,0,0,2.177,5.287q2.177,2.02,8.137,3.317l12.854,2.643a31.2,31.2,0,0,1,10.962,3.991,19.443,19.443,0,0,1,6.116,5.96,19.849,19.849,0,0,1,2.7,6.764,34.568,34.568,0,0,1,.648,6.35,17.2,17.2,0,0,1-3.81,10.91,25.648,25.648,0,0,1-10.6,7.671A41.09,41.09,0,0,1,653.72,174.222Z"/>
  </g>
  <g id="Layer_6" data-name="Layer 6">
    <path d="M761.264,174.213H744.351l-20.37-35.794L712.6,152.141v22.072H696.485V97.307H712.6v35.209l28.029-35.209h17.817L735.1,127.091Z"/>
  </g>
</svg>
