<?xml version="1.0" encoding="utf-8"?>
<!-- Generator: Adobe Illustrator 24.0.2, SVG Export Plug-In . SVG Version: 6.00 Build 0)  -->
<svg version="1.1" id="Layer_1" xmlns="http://www.w3.org/2000/svg" xmlns:xlink="http://www.w3.org/1999/xlink" x="0px" y="0px"
	 viewBox="0 0 144.9 145.7" style="enable-background:new 0 0 144.9 145.7;" xml:space="preserve">
<style type="text/css">
	.st0{fill:#FFFFFF;}
</style>
<path class="st0" d="M36.4,139.6c-10.4-8-13.4-25.7-20.2-43s-17.4-34.2-16.1-50C1.5,30.8,14.8,16.2,30.5,8.1
	c15.7-8,33.7-9.5,49.9-7.1c16.3,2.4,30.8,8.7,42.4,18.1s20.3,21.9,21.8,34.7c1.6,12.9-3.9,26.1-8.5,39.6c-4.6,13.4-8.2,26.9-17,35.5
	c-8.9,8.6-22.9,12.2-38.8,14.8C64.5,146.2,46.7,147.7,36.4,139.6z"/>
</svg>
